General
      Complete name : The.Wild.Bunch.1969.DC.BRRip.H264.5.1ch.Gopo.mp4
      Format : MPEG-4
      Format profile : Base Media
      Codec ID : isom
      File size : 2.24 GiB
      Duration : 2h 24mn
      Overall bit rate : 2 218 Kbps
      Encoded date : UTC 2009-11-26 20:06:52
      Tagged date : UTC 2009-11-26 20:06:52
   Video #1
      ID : 1
      Format : AVC
      Format/Info : Advanced Video Codec
      Format profile : High@L4.1
      Format settings, CABAC : Yes
      Format settings, ReFrames : 4 frames
      Codec ID : avc1
      Codec ID/Info : Advanced Video Coding
      Duration : 2h 24mn
      Bit rate mode : Variable
      Bit rate : 1 850 Kbps
      Maximum bit rate : 4 572 Kbps
      Width : 1 280 pixels
      Height : 528 pixels
      Display aspect ratio : 2.40:1
      Frame rate mode : Constant
      Frame rate : 23.976 fps
      Resolution : 24 bits
      Colorimetry : 4:2:0
      Scan type : Progressive
      Bits/(Pixel*Frame) : 0.114
      Stream size : 1.87 GiB (83%)
      Writing library : x264 core 68 r1183M f21daff
      Encoding settings : cabac=1 / ref=4 / deblock=1:-1:-1 / analyse=0x3:0x113 / me=umh / subme=7 / psy_rd=1.0:0.0 / mixed_ref=1 / me_range=16 / chroma_me=1 / trellis=2 / 8x8dct=1 / cqm=0 / deadzone=21,11 / chroma_qp_offset=-2 / threads=3 / nr=0 / decimate=1 / mbaff=0 / bframes=3 / b_pyramid=0 / b_adapt=2 / b_bias=0 / direct=3 / wpredb=1 / keyint=250 / keyint_min=25 / scenecut=40 / rc=2pass / bitrate=1850 / ratetol=1.0 / qcomp=0.60 / qpmin=10 / qpmax=51 / qpstep=4 / cplxblur=20.0 / qblur=0.5 / vbv_maxrate=50000 / vbv_bufsize=50000 / ip_ratio=1.40 / pb_ratio=1.30 / aq=1:1.00
      Encoded date : UTC 2009-11-25 20:40:34
      Tagged date : UTC 2009-11-26 20:11:19
   Audio #2
      ID : 2
      Format : AAC
      Format/Info : Advanced Audio Codec
      Format version : Version 4
      Format profile : LC
      Format settings, SBR : No
      Codec ID : 40
      Duration : 2h 24mn
      Bit rate mode : Variable
      Bit rate : 365 Kbps
      Maximum bit rate : 422 Kbps
      Channel(s) : 6 channels
      Channel positions : Front: L C R, Rear: L R, LFE
      Sampling rate : 48.0 KHz
      Resolution : 16 bits
      Stream size : 378 MiB (16%)
      Encoded date : UTC 2009-11-26 20:09:58
      Tagged date : UTC 2009-11-26 20:11:19	
	Sample : YES	
	Subtitle : English,Romanian

PLOT

After a botched robbery attempt in Texas, Pike Bishop and his gang head south across the Rio Grande and into Mexico. They are being pursued by Deke Thornton and his men, made up of bounty hunters. They had been hired by the railroad to stop Bishop and his gang from robbing the rail depot and now have 30 days to track them down and kill them. Bishop and his men plan to spend only a short time in Mexico and then cross back into Texas to continue plying their trade. Their stay is lengthened however when they meet a violent Mexican general who wants them to rob a U.S. train carrying arms. They do so, but it leads to a violent and bloody final confrontation.
Director: Sam Peckinpah
CASTING
      
      William Holden	... 	Pike Bishop
	Ernest Borgnine	... 	Dutch Engstrom
	Robert Ryan	... 	Deke Thornton
	Edmond O'Brien	... 	Freddie Sykes
	Warren Oates	... 	Lyle Gorch
	Jaime Sánchez	... 	Angel (as Jaime Sanchez)
	Ben Johnson	... 	Tector Gorch
	Emilio Fernández	... 	Gen. Mapache (as Emilio Fernandez)
	Strother Martin	... 	Coffer
	L.Q. Jones	... 	T.C
	Albert Dekker	... 	Pat Harrigan
	Bo Hopkins	... 	Clarence 'Crazy' Lee
	Dub Taylor	... 	Rev. Wainscoat
	Paul Harper	... 	Ross
	Jorge Russek	... 	Maj. Zamorra

SOURCE: The.Wild.Bunch.1969.DC.Blu-ray.720p.AC3.x264-CHD.mkv

Notes: For best performance I suggest you to use KMPlayer(find it with google) for playback
I haven't tested the movies on a PS3 or Xbox or other devices than PC because I don't own one of them but feel free to test them if you have the oportunity.
